<svg xmlns="http://www.w3.org/2000/svg" xml:space="preserve" viewBox="0 0 512 512"><path d="M256 0C114.8 0 0 114.8 0 256s114.8 256 256 256 256-114.8 256-256S397.2 0 256 0m0 39.4c119.9 0 216.6 96.8 216.6 216.6S375.9 472.6 256 472.6 39.4 375.9 39.4 256 136.1 39.4 256 39.4m-98.5 59.1c-10.9 0-19.7 8.8-19.7 19.7s8.8 19.7 19.7 19.7 19.7-8.8 19.7-19.7-8.8-19.7-19.7-19.7m-19.7 59v216.6h39.4V157.5zm78.8 0v216.6h88.6c59.6 0 108.3-48.7 108.3-108.3s-48.7-108.3-108.3-108.3zm39.4 39.4h49.2c38.3 0 68.9 30.6 68.9 68.9s-30.6 68.9-68.9 68.9H256z"/></svg>